<svg xmlns="http://www.w3.org/2000/svg" viewBox="0 0 430.5 934"><defs><style>.cls-1{fill:#bfd300;}.cls-2,.cls-25{fill:#fff;}.cls-3{fill:#33435c;}.cls-4,.cls-5{fill:#000202;}.cls-4{stroke:#fff;stroke-miterlimit:10;}.cls-6{fill:#272427;}.cls-7{fill:#123ab4;}.cls-8{fill:#c22a34;}.cls-9{fill:#6d7d88;}.cls-10{fill:#5a595c;}.cls-11{fill:#e4c664;}.cls-12{fill:#b7d6e3;}.cls-13{fill:#ffea7b;}.cls-14{fill:#bde0f0;}.cls-15{fill:#8aa3ab;}.cls-16{fill:#8fa6b0;}.cls-17{fill:#7d919b;}.cls-18{fill:#b6d8e4;}.cls-19{fill:#acc7d3;}.cls-20{fill:#87a1aa;}.cls-21{fill:#e42633;}.cls-22{fill:#f9a122;}.cls-23{fill:#293984;}.cls-24{fill:#853e40;}.cls-25{font-size:60px;font-family:MyriadPro-Regular, Myriad Pro;}</style></defs><title>Police car yellow big</title><g id="Layer_2" data-name="Layer 2"><g id="Layer_1-2" data-name="Layer 1"><rect class="cls-1" x="28.5" width="378" height="934" rx="88.32"/><path class="cls-2" d="M50,775.5v-81l32-18v-139l-32,4v-23l29,2,3-116-32-97v-18l20-11,23,95s65-38,126-30c0,0,57,2,76,9a376,376,0,0,1,46,20l23-94,18,9,1,15-32,99v120l32-3v20H351v139l30,15,2,83-20,9L342.5,713s-105,27-123,21c0,0-106-9-128-22l-18,73Z"/><path class="cls-3" d="M73,788.5l18-73s80,21,118,19,57-1,133-19l19,68s-37,25-144,25S88,780.5,73,788.5Z"/><polygon class="cls-3" points="50.5 697 82.5 679 82.5 538 50.5 543 50.5 697"/><polygon class="cls-3" points="381.5 697 381.5 540 353.5 540 353.5 681 381.5 697"/><polygon class="cls-3" points="383.5 518 355.5 519 355.5 407 383.5 301 383.5 518"/><polygon class="cls-3" points="78.5 514 46.5 514 47.5 301 81.5 400 78.5 514"/><path class="cls-3" d="M69.5,279l23,95s8-26,126-30c0,0,52-13,122,29l23-94s-55-37.22-135-39C138.5,238,104.5,267,69.5,279Z"/><polygon class="cls-2" points="382 709.5 405 685.5 405 334.5 384 334.5 382 709.5"/><polygon class="cls-2" points="49 707.5 29 678.5 29 330.5 49 330.5 49 707.5"/><rect class="cls-4" x="390" y="489.5" width="7" height="29"/><rect class="cls-4" x="35" y="484.5" width="7" height="29"/><rect class="cls-4" x="390" y="654.5" width="7" height="29"/><rect class="cls-4" x="37" y="652.5" width="7" height="29"/><path class="cls-5" d="M51,329.5v-28H30s-13,2-18,8c0,0-9,4-12,20Z"/><path class="cls-5" d="M379.5,333V305h21s13,2,18,8c0,0,9,4,12,20Z"/><rect class="cls-6" x="101.5" y="456" width="232" height="43" rx="7.5"/><rect class="cls-7" x="107.5" y="462" width="63" height="30" rx="8.82"/><rect class="cls-8" x="265.5" y="462" width="63" height="30" rx="8.82"/><path class="cls-9" d="M138.5,20s-30-6-47,1-10,3-26,14-16,12-21,32c0,0,24-10,35-8s28-9,28-9Z"/><path class="cls-9" d="M294,18.3S315.5,10,332.5,17,351,22.3,367,33.3s16,12,21,32c0,0-24-10-35-8s-28-9-28-9Z"/><path class="cls-10" d="M176.64,466h81.8a7.07,7.07,0,0,1,7.07,7.07v9.8a6.14,6.14,0,0,1-6.14,6.14H176.64a6.14,6.14,0,0,1-6.14-6.14V472.14A6.14,6.14,0,0,1,176.64,466Z"/><path class="cls-11" d="M360.5,57l4-26s16,9,20,20,5,18,3,15S360.5,57,360.5,57Z"/><path class="cls-11" d="M45.17,66.74c2-3,29.33-7.74,29.33-7.74L71.17,31.74A69.28,69.28,0,0,0,52.5,46C44.5,55,45.17,66.74,45.17,66.74Z"/><rect class="cls-12" x="79.5" y="36" width="17" height="7" rx="2"/><rect class="cls-13" x="52.5" y="47" width="17" height="7" rx="2" transform="translate(111.5 -10.5) rotate(90)"/><rect class="cls-13" x="363.5" y="45" width="17" height="7" rx="2" transform="translate(420.5 -323.5) rotate(90)"/><rect class="cls-14" x="98.3" y="26.84" width="17" height="7" rx="2"/><rect class="cls-15" x="98.3" y="35.84" width="17" height="7" rx="2"/><rect class="cls-16" x="332.5" y="24" width="17" height="7" rx="2"/><rect class="cls-17" x="315.5" y="31" width="17" height="7" rx="2"/><rect class="cls-18" x="313.5" y="23" width="17" height="7" rx="2"/><rect class="cls-19" x="334.5" y="32" width="17" height="7" rx="2"/><rect class="cls-20" x="79.3" y="27.84" width="17" height="7" rx="2"/><path class="cls-21" d="M158.5,931v-5l-36-1s-17-2-26-8c0,0-20-10-19-12s1,12,1,12,7,8,23,11c11.84,2.22,18,3,26,3Z"/><path class="cls-21" d="M281.5,930v-5l36-1s17-2,26-8c0,0,19-10,18-12s0,12,0,12-7,8-23,11c-11.84,2.22-18,3-26,3Z"/><path class="cls-22" d="M371.5,894s-.17.27-.49.74a35.15,35.15,0,0,1-10.51,9.94V917s10-7.39,11-11.5V894"/><path class="cls-22" d="M67.5,894s.17.28.49.77A35.87,35.87,0,0,0,78.5,905.14V918s-10-7.71-11-12V894"/><rect class="cls-23" x="188.5" y="15" width="29" height="13"/><rect class="cls-24" x="224.5" y="15" width="29" height="13"/><text class="cls-25" transform="translate(126.38 876)">POLICE</text><text class="cls-25" transform="translate(308.27 131.38) rotate(180)">POLICE</text></g></g></svg>