<svg xmlns="http://www.w3.org/2000/svg" viewBox="0 0 157.36 341.41"><defs><style>.cls-1{fill:#bfd300;}.cls-2,.cls-25{fill:#fff;}.cls-3{fill:#33435c;}.cls-4,.cls-5{fill:#000202;}.cls-4{stroke:#fff;stroke-miterlimit:10;}.cls-6{fill:#272427;}.cls-7{fill:#123ab4;}.cls-8{fill:#c22a34;}.cls-9{fill:#6d7d88;}.cls-10{fill:#5a595c;}.cls-11{fill:#e4c664;}.cls-12{fill:#b7d6e3;}.cls-13{fill:#ffea7b;}.cls-14{fill:#bde0f0;}.cls-15{fill:#8aa3ab;}.cls-16{fill:#8fa6b0;}.cls-17{fill:#7d919b;}.cls-18{fill:#b6d8e4;}.cls-19{fill:#acc7d3;}.cls-20{fill:#87a1aa;}.cls-21{fill:#e42633;}.cls-22{fill:#f9a122;}.cls-23{fill:#293984;}.cls-24{fill:#853e40;}.cls-25{font-size:21.93px;font-family:MyriadPro-Regular, Myriad Pro;}</style></defs><title>Police car yellow small</title><g id="Layer_2" data-name="Layer 2"><g id="Layer_1-2" data-name="Layer 1"><rect class="cls-1" x="10.42" width="138.17" height="341.41" rx="37.21"/><path class="cls-2" d="M18.28,283.47v-29.6L30,247.29V196.48l-11.69,1.46v-8.41l10.6.73L30,147.86,18.28,112.4v-6.58l7.31-4L34,136.53s23.76-13.89,46.06-11c0,0,20.84.73,27.78,3.29a137.38,137.38,0,0,1,16.82,7.31l8.41-34.36,6.58,3.29.36,5.48-11.7,36.19v43.87l11.7-1.1v7.31H128.3v50.81l11,5.48.73,30.34-7.31,3.29-7.49-26.13s-38.38,9.87-45,7.67c0,0-38.75-3.29-46.79-8L26.87,287Z"/><path class="cls-3" d="M26.68,288.23l6.58-26.69s29.25,7.68,43.14,6.95,20.83-.37,48.61-6.95l7,24.86s-13.53,9.14-52.64,9.14S32.17,285.3,26.68,288.23Z"/><polygon class="cls-3" points="18.46 254.78 30.16 248.2 30.16 196.66 18.46 198.49 18.46 254.78"/><polygon class="cls-3" points="139.45 254.78 139.45 197.39 129.22 197.39 129.22 248.93 139.45 254.78"/><polygon class="cls-3" points="140.18 189.35 129.95 189.71 129.95 148.77 140.18 110.03 140.18 189.35"/><polygon class="cls-3" points="28.7 187.89 17 187.89 14.07 104.18 28.7 145.85 28.7 187.89"/><path class="cls-3" d="M25.4,102l8.41,34.73s2.93-9.5,46.06-11c0,0,19-4.75,44.6,10.61l8.4-34.37s-20.09-13.6-49.34-14.25C50.63,87,38.2,97.6,25.4,102Z"/><polygon class="cls-2" points="139.63 259.35 148.04 250.58 148.04 122.27 140.37 122.27 139.63 259.35"/><polygon class="cls-2" points="17.91 258.62 10.6 248.02 10.6 120.81 17.91 120.81 17.91 258.62"/><rect class="cls-4" x="142.56" y="178.93" width="2.56" height="10.6"/><rect class="cls-4" x="12.79" y="177.1" width="2.56" height="10.6"/><rect class="cls-4" x="142.56" y="239.24" width="2.56" height="10.6"/><rect class="cls-4" x="13.52" y="238.51" width="2.56" height="10.6"/><path class="cls-5" d="M18.64,120.44V110.21H11s-4.76.73-6.58,2.92c0,0-3.29,1.47-4.39,7.31Z"/><path class="cls-5" d="M138.72,121.72V111.49h7.68s4.75.73,6.58,2.92c0,0,3.29,1.47,4.38,7.31Z"/><rect class="cls-6" x="37.1" y="166.68" width="84.8" height="15.72" rx="7.5"/><rect class="cls-7" x="39.3" y="168.88" width="23.03" height="10.97" rx="5.48"/><rect class="cls-8" x="97.05" y="168.88" width="23.03" height="10.97" rx="5.48"/><path class="cls-9" d="M50.63,7.31s-11-2.19-17.18.37-3.66,1.09-9.51,5.11-5.85,4.39-7.67,11.7c0,0,8.77-3.65,12.79-2.92S39.3,18.28,39.3,18.28Z"/><path class="cls-9" d="M107.46,6.69s7.87-3,14.08-.48,6.75,1.94,12.6,6,5.85,4.39,7.68,11.7c0,0-8.78-3.66-12.8-2.93s-10.23-3.29-10.23-3.29Z"/><path class="cls-10" d="M66.23,170.34H92.55a4.5,4.5,0,0,1,4.5,4.5v0a3.91,3.91,0,0,1-3.91,3.91H66.23a3.91,3.91,0,0,1-3.91-3.91v-.59a3.91,3.91,0,0,1,3.91-3.91Z"/><path class="cls-11" d="M131.78,20.84l1.46-9.51s5.85,3.29,7.31,7.31,1.83,6.58,1.1,5.49S131.78,20.84,131.78,20.84Z"/><path class="cls-11" d="M16.51,24.4c.73-1.1,10.72-2.83,10.72-2.83L26,11.6a25.19,25.19,0,0,0-6.83,5.21A11.56,11.56,0,0,0,16.51,24.4Z"/><rect class="cls-12" x="29.06" y="13.16" width="6.21" height="2.56" rx="1.28"/><rect class="cls-13" x="19.19" y="17.18" width="6.21" height="2.56" rx="1.28" transform="translate(40.76 -3.84) rotate(90)"/><rect class="cls-13" x="132.87" y="16.45" width="6.21" height="2.56" rx="1.28" transform="translate(153.71 -118.25) rotate(90)"/><rect class="cls-14" x="35.93" y="9.81" width="6.21" height="2.56" rx="1.28"/><rect class="cls-15" x="35.93" y="13.1" width="6.21" height="2.56" rx="1.28"/><rect class="cls-16" x="121.54" y="8.77" width="6.21" height="2.56" rx="1.28"/><rect class="cls-17" x="115.33" y="11.33" width="6.21" height="2.56" rx="1.28"/><rect class="cls-18" x="114.6" y="8.41" width="6.21" height="2.56" rx="1.28"/><rect class="cls-19" x="122.27" y="11.7" width="6.21" height="2.56" rx="1.28"/><rect class="cls-20" x="28.99" y="10.18" width="6.21" height="2.56" rx="1.28"/><path class="cls-21" d="M57.94,340.31v-1.82l-13.16-.37s-6.22-.73-9.51-2.92c0,0-7.31-3.66-6.94-4.39s.36,4.39.36,4.39,2.56,2.92,8.41,4a46.82,46.82,0,0,0,9.51,1.09Z"/><path class="cls-21" d="M102.9,340v-1.83l13.16-.36s6.21-.73,9.5-2.93c0,0,6.95-3.65,6.58-4.38s0,4.38,0,4.38-2.56,2.93-8.41,4a46.85,46.85,0,0,1-9.5,1.1Z"/><path class="cls-22" d="M135.8,326.79l-.18.27a12.83,12.83,0,0,1-3.84,3.63v4.51s3.65-2.71,4-4.21v-4.2"/><path class="cls-22" d="M24.67,326.79l.18.28a13.2,13.2,0,0,0,3.84,3.79v4.7s-3.65-2.82-4-4.38v-4.39"/><rect class="cls-23" x="68.9" y="5.48" width="10.6" height="4.75"/><rect class="cls-24" x="82.06" y="5.48" width="10.6" height="4.75"/><text class="cls-25" transform="translate(46.2 320.21)">POLICE</text><text class="cls-25" transform="translate(112.68 48.02) rotate(180)">POLICE</text></g></g></svg>